<?xml version="1.0" encoding="utf-8"?>
<!-- Generator: Adobe Illustrator 19.2.0, SVG Export Plug-In . SVG Version: 6.00 Build 0)  -->
<svg version="1.1" id="Layer_1" xmlns="http://www.w3.org/2000/svg" xmlns:xlink="http://www.w3.org/1999/xlink" x="0px" y="0px"
	 viewBox="0 0 31.9 14.8" style="enable-background:new 0 0 31.9 14.8;" xml:space="preserve">
<style type="text/css">
	.st0{fill:#FFFFFF;}
</style>
<g>
	<path class="st0" d="M12.7,0.9c0.5-0.3,1-0.5,1.6-0.6l0,0c-0.6,0.1-1.2,0.2-1.8,0.3L12.7,0.9z"/>
	<path class="st0" d="M10.4,2.7c0.4-0.4,0.8-0.8,1.3-1.2l-0.5-0.6c-0.7,0.2-1.3,0.5-1.9,0.7L10.4,2.7z"/>
	<path class="st0" d="M9,5.2c0.2-0.6,0.4-1.1,0.7-1.6L7.9,2.4C7.2,2.9,6.6,3.3,6,3.9L9,5.2z"/>
	<path class="st0" d="M18.4,0.3C19,0.4,19.5,0.6,20,0.9l0.2-0.3C19.6,0.4,19,0.3,18.4,0.3L18.4,0.3z"/>
	<path class="st0" d="M21,1.5c0.5,0.4,0.9,0.7,1.3,1.2l1.1-1c-0.6-0.3-1.2-0.5-1.9-0.8L21,1.5z"/>
	<path class="st0" d="M23,3.7c0.3,0.5,0.6,1,0.7,1.6l3-1.4c-0.6-0.5-1.2-1-1.9-1.4L23,3.7z"/>
	<path class="st0" d="M29.6,7.4c-0.4-0.7-0.9-1.4-1.5-2.1l-4.1,1c0.1,0.3,0.1,0.6,0.1,0.9C26.1,7,28,7.1,29.6,7.4z"/>
	<path class="st0" d="M8.6,7.1c0-0.3,0.1-0.6,0.1-0.8l-4.1-1C4,5.9,3.5,6.6,3.1,7.4C4.7,7.2,6.6,7,8.6,7.1z"/>
	<path class="st0" d="M23,7.4c-0.2-3.5-3.1-6.3-6.7-6.3c-3.5,0-6.4,2.7-6.7,6.2c2.7,0.3,5.4,1,7.6,2.5C19.1,8.4,21.1,7.7,23,7.4z"/>
	<path class="st0" d="M18.5,10.7c1.1,1,2,2.1,2.8,3.6c4.3-0.8,8-2.6,10.5-4.9C28.6,8.5,23.2,7.7,18.5,10.7z"/>
	<path class="st0" d="M19.7,14.5C15.5,6.9,4.3,8.4,0.1,9.3c3.3,3.3,9.2,5.4,15.9,5.4C17.3,14.8,18.5,14.7,19.7,14.5z"/>
</g>
</svg>
