<?xml version="1.0" encoding="utf-8"?>
<!-- Generator: Adobe Illustrator 19.2.0, SVG Export Plug-In . SVG Version: 6.00 Build 0)  -->
<svg version="1.1" id="Layer_1" xmlns="http://www.w3.org/2000/svg" xmlns:xlink="http://www.w3.org/1999/xlink" x="0px" y="0px"
	 viewBox="0 0 85.1 81.8" style="enable-background:new 0 0 85.1 81.8;" xml:space="preserve">
<style type="text/css">
	.st0{fill:#005487;}
	.st1{fill:#98D5E9;}
	.st2{fill:url(#SVGID_1_);}
	.st3{fill:url(#SVGID_2_);}
	.st4{fill:url(#SVGID_3_);}
</style>
<path class="st0" d="M8.1,48.1c0,1.7,0.8,2.3,2.4,2.3h0.4v1.2H0.8v-1.2h0.6c1.6,0,2.4-0.5,2.4-2.3V36c0-1.6-0.6-2.3-2.4-2.3H0.9
	v-1.2H11v1.2h-0.5c-2,0-2.3,0.8-2.3,2.5v5.6c1.2-0.2,2.7-1,4.1-2.3c1-1,3-3.5,3-4.7c0-0.6-0.6-1-1.9-1h-0.3v-1.2h8.2v1.2
	c-1.9,0.1-2.5,0.3-3.4,1.1c-1.4,1.4-2.8,4.4-5.1,6.1c0.9,0.5,2.3,2.1,3.3,3.3l2.7,3.4c1.6,2,2.8,2.9,4.7,2.9v1.2H13v-1.2
	c1.3,0,2.2-0.2,2.2-0.8c0-0.6-2.8-3.9-4.8-5.8c-1-1-1.4-1.1-2.2-1.1v5.2H8.1z"/>
<path class="st0" d="M25.6,32.4h9.8v1.2h-0.5c-1.7,0-2.3,0.7-2.3,2.3v12.2c0,1.5,0.5,2.3,2.4,2.3h0.5v1.2h-9.8v-1.2h0.4
	c1.6,0,2.3-0.8,2.3-2.1V35.9c0-1.6-0.6-2.3-2.3-2.3h-0.4v-1.2H25.6z"/>
<path class="st0" d="M42.1,47.9c0,1.9,0.6,2.5,3.1,2.5v1.2h-7.5v-1.2h0.2c1.9,0,2.3-0.7,2.3-1.9V34.3c-0.7-0.5-1.5-0.7-2.5-0.7v-1.2
	h6.4l12.6,13.2v-9.3c0-2.2-0.5-2.6-2.9-2.6h-0.3v-1.2h8v1.2h-0.3c-1.9,0-2.5,0.4-2.5,1.6v16.5H57L42.2,36.3v11.6H42.1z"/>
<path class="st0" d="M82.5,43.5c-1.6,0-2.2,0.5-2.2,1.9V50c-2.2,1-5.4,1.9-8.1,1.9c-7.8,0-11.6-4.4-11.6-10.3
	c0-5.7,4.7-9.8,11.2-9.8c3.2,0,5.7,1.1,6.7,1.1c0.5,0,0.7-0.1,0.9-0.4h0.8v5.6H79c-0.8-3.1-3.2-5-6.4-5c-4.4,0-7.4,3.5-7.4,8.5
	c0,5.1,3.2,8.8,7.5,8.8c1.2,0,2.5-0.3,3.3-0.8v-4.1c0-1.5-0.6-1.9-3.8-1.9v-1.2h10.3V43.5z"/>
<path class="st0" d="M13.7,67.2c-0.3-0.1-0.4-0.1-0.7-0.1c-1,0-2.4,0.5-4.3,0.5c-5,0-7.7-2.9-7.7-6.7c0-3.6,2.4-7.3,7.9-7.3
	c2.3,0,4,0.7,4.6,0.7c0.2,0,0.3,0,0.4-0.1h0.5l0.1,3.5h-0.6c-0.8-2.2-2.5-3.4-4.9-3.4c-3.2,0-5.4,2.4-5.4,6c0,3.7,2.5,6.5,5.7,6.5
	c2.1,0,4-1.1,5.2-3.1h0.6L13.7,67.2z"/>
<path class="st0" d="M20.2,64.7c0,1.2,0.2,1.8,1.9,1.9v0.6h-6.2v-0.6c1.7-0.1,1.9-0.6,1.9-2v-8c0-1.6-0.2-2.1-1.9-2.2v-0.6h6.2v0.6
	c-1.6,0.1-1.9,0.4-1.9,2.3v3.2h7.7v-3.2c0-1.7-0.2-2.2-2-2.2v-0.6h6.3v0.6c-1.7,0.1-2,0.5-2,2.1v8.1c0,1.5,0.2,1.9,2,2v0.6h-6.3
	v-0.6c1.7-0.1,2-0.5,2-2V61h-7.7V64.7z"/>
<path class="st0" d="M33.9,67.2v-0.6c1.7,0,2.2-0.3,2.2-1.5v-9.2c0-1.4-0.7-1.5-2.2-1.5v-0.6h10.9L45,57h-0.5l-0.1-0.4
	c-0.4-1.8-0.8-1.8-2.1-1.8h-3.8v5h3.3c1.2,0,1.5-0.1,1.6-1.6H44v4.3h-0.6c-0.1-1.5-0.4-1.7-1.6-1.7h-3.3v3.9c0,1.3,0.2,1.5,1.3,1.5
	h2.1c2.2,0,2.6-0.3,3.2-2.4h0.6l-0.3,3.4L33.9,67.2L33.9,67.2z"/>
<path class="st0" d="M46.6,67.2v-0.6c1.7,0,2.2-0.3,2.2-1.5v-9.2c0-1.4-0.7-1.5-2.2-1.5v-0.6h10.9l0.2,3.2h-0.6L57,56.6
	c-0.4-1.8-0.8-1.8-2.1-1.8h-3.8v5h3.3c1.2,0,1.5-0.1,1.6-1.6h0.6v4.3H56c-0.2-1.5-0.4-1.7-1.6-1.7h-3.3v3.9c0,1.3,0.2,1.5,1.3,1.5
	h2.1c2.2,0,2.6-0.3,3.2-2.4h0.6L58,67.2L46.6,67.2L46.6,67.2z"/>
<path class="st0" d="M59.4,63.7H60c0.5,2,1.9,3.1,3.7,3.1c1.6,0,2.7-0.9,2.7-2.2c0-3-6.7-4.2-6.7-7.9c0-1.8,1.6-3.1,3.9-3.1
	c0.7,0,1.2,0.1,1.7,0.2c0.4,0.1,0.8,0.2,1.1,0.2c0.3,0,0.4-0.1,0.6-0.3h0.5L68,57h-0.6c-0.6-1.7-2-2.7-3.5-2.7
	c-1.4,0-2.1,0.8-2.1,1.8c0,2.9,6.8,3.7,6.8,7.9c0,2.2-1.9,3.7-4.6,3.7c-1.6,0-2.3-0.4-2.9-0.4c-0.3,0-0.4,0.1-0.6,0.2H60L59.4,63.7z
	"/>
<path class="st0" d="M69.2,67.2v-0.6c1.7,0,2.2-0.3,2.2-1.5v-9.2c0-1.4-0.7-1.5-2.2-1.5v-0.6h10.9l0.2,3.2h-0.6l-0.1-0.4
	c-0.4-1.8-0.8-1.8-2.1-1.8h-3.8v5H77c1.2,0,1.5-0.1,1.6-1.6h0.6v4.3h-0.6c-0.1-1.5-0.4-1.7-1.6-1.7h-3.3v3.9c0,1.3,0.2,1.5,1.3,1.5
	h2.1c2.2,0,2.6-0.3,3.2-2.4h0.6l-0.3,3.4L69.2,67.2L69.2,67.2z"/>
<g>
	<path class="st1" d="M23.2,68.4C23.2,68.4,23.2,68.3,23.2,68.4c0-0.1,0-0.1,0-0.1c0-0.1,0-0.1,0.1-0.1c0,0,0,0,0-0.1
		c0.1-0.2,0.1-0.4,0.2-0.6c0-0.2,0.1-0.4,0.2-0.6c-0.1-0.1-0.2-0.3-0.3-0.4c-0.1-0.1-0.2-0.2-0.4-0.2c-0.2,0.1-0.3,0.2-0.4,0.4
		s-0.2,0.3-0.3,0.5c-0.2,0.4-0.4,0.8-0.7,1.1c-0.2,0.4-0.4,0.8-0.6,1.2c0,0.1-0.1,0.1-0.2,0.2s-0.1,0.2-0.1,0.2
		c-0.1,0.1-0.1,0.3-0.2,0.4c0,0.1-0.1,0.3-0.2,0.4c0,0.1-0.1,0.1-0.1,0.2c0,0-0.1,0.1-0.1,0.2S20,71.2,20,71.3s-0.1,0.1-0.2,0.2v0.1
		c0,0.1,0,0.2-0.1,0.2c0,0-0.1,0.1-0.1,0.2v0.1c0,0-0.1,0-0.1,0.1c0,0-0.1,0.1-0.1,0.2s-0.1,0.1-0.1,0.2s-0.1,0.1-0.1,0.2l0,0
		c0,0,0,0,0,0.1V73v0.1c-0.1,0-0.1,0.1-0.2,0.2c0,0.1-0.1,0.2-0.1,0.3c0,0.1-0.1,0.2-0.1,0.3c0,0.1-0.1,0.2-0.1,0.2
		c-0.2,0.2-0.3,0.4-0.5,0.5c-0.1,0.2-0.3,0.3-0.4,0.5c-0.6,0.6-1.1,1.2-1.7,1.7c-0.6,0.6-1.2,1.1-1.8,1.6c-0.1,0-0.1,0.1-0.2,0.1
		s-0.2,0.1-0.3,0.1l-0.1,0.1c0,0,0,0.1-0.1,0.1h-0.1c0,0-0.1,0-0.2,0C13.1,78.9,13,79,12.8,79c-0.1,0.1-0.3,0.1-0.5,0.1
		c-0.4,0-0.7-0.1-0.8-0.4c-0.1-0.3-0.2-0.6-0.2-1.1c0-0.1,0-0.3,0-0.5s0.1-0.4,0.1-0.7c0-0.2,0.1-0.5,0.2-0.7s0.2-0.4,0.3-0.5
		c0.4-0.4,0.8-0.8,1.2-1.2c0.4-0.4,0.7-0.8,0.9-1.2c0,0,0.1-0.1,0.2-0.2c0.1,0,0.1-0.1,0.1-0.1s0,0,0-0.1v-0.1l0.1-0.1
		c0,0,0.1,0,0.1-0.1l0.1-0.1c0,0,0-0.1,0.1-0.2c0.1-0.2,0.3-0.4,0.4-0.5s0.2-0.3,0.3-0.4c0.1-0.1,0.2-0.3,0.3-0.4
		c0.1-0.1,0.2-0.3,0.3-0.5c0.1-0.1,0.1-0.2,0.2-0.3c0-0.1,0.1-0.2,0.1-0.3l0.1-0.1l0.1-0.1c0.1-0.2,0.2-0.4,0.3-0.7s0.1-0.5,0.2-0.7
		c0-0.2,0.1-0.3,0.1-0.5c0-0.1,0-0.3,0-0.4c0-0.2,0-0.4,0-0.5c0-0.2,0-0.4-0.1-0.5s-0.2-0.1-0.2-0.2c-0.1-0.1-0.1-0.2-0.2-0.3
		s-0.2-0.1-0.3-0.2c-0.1,0-0.2-0.1-0.4-0.1c-0.1,0-0.2,0-0.3,0.1c-0.1,0.1-0.2,0.1-0.3,0.2c-0.1,0.1-0.2,0.2-0.2,0.2
		c0,0.1-0.1,0.1,0,0.1c0,0,0,0,0,0.1c0,0,0,0-0.1,0h0.5c0,0,0,0,0,0.1s0,0.1,0,0.1h-0.1c0,0-0.1,0-0.1,0.1l0,0c0,0,0,0,0,0.1
		c0,0,0,0.1-0.1,0.2s-0.1,0.1-0.2,0.2v0.1c0,0.1,0,0.1,0,0.1l0,0c0,0,0,0-0.1,0l0,0l0,0c0,0,0,0,0,0.1c-0.1,0.2-0.3,0.3-0.3,0.4
		c-0.1,0.1-0.1,0.2-0.2,0.3c0,0.1-0.1,0.2-0.1,0.3c0,0.1-0.1,0.2-0.2,0.3c-0.1,0.1-0.1,0.3-0.2,0.4c0,0.2-0.1,0.3-0.1,0.4
		c0,0,0,0-0.1,0h-0.1c-0.1,0.4-0.2,0.8-0.4,1.1c-0.1,0.3-0.3,0.5-0.4,0.5l0,0c0,0.2,0,0.3-0.1,0.4s-0.1,0.2-0.1,0.3
		c-0.1,0.3-0.2,0.5-0.3,0.7c-0.1,0.2-0.1,0.4-0.2,0.6S12,72.9,11.9,73c0,0.1-0.1,0.1-0.1,0.2s-0.1,0.2-0.1,0.3
		c0,0.1-0.1,0.3-0.1,0.5c-0.1,0.1-0.2,0.1-0.3,0.2c-0.1,0.1-0.2,0.1-0.3,0.2c-0.1,0.1-0.2,0.2-0.2,0.3c0,0.1,0,0.1,0,0.2
		S10.7,75,10.7,75s-0.1,0.1-0.2,0.1l-0.1,0.1c0,0-0.1,0-0.2,0.1c0,0-0.1,0.1-0.2,0.1c-0.2,0.2-0.5,0.4-0.8,0.5
		c-0.3,0.2-0.6,0.3-0.9,0.4c0,0.1,0,0.2-0.1,0.3c-0.1,0-0.2,0.1-0.3,0.1l0,0c0,0.1,0,0.1-0.1,0.2S7.6,77,7.5,77.1
		c-0.1,0-0.2,0.1-0.4,0.1c-0.1,0-0.2,0-0.3,0c-0.2,0-0.3,0-0.5-0.1c-0.1-0.1-0.2-0.3-0.2-0.5c0-0.3,0-0.6,0.1-0.8
		c0-0.2,0.1-0.5,0.2-0.7s0.2-0.4,0.2-0.7c0.1-0.2,0.1-0.4,0.2-0.7c-0.1,0-0.2-0.1-0.2-0.2c-0.1-0.1-0.2-0.1-0.3-0.1H6.2H6.1
		c-0.1,0-0.1,0-0.1-0.1c-0.1,0.1-0.2,0.2-0.3,0.3c-0.1,0.1-0.2,0.2-0.4,0.2c0-0.3-0.1-0.5-0.2-0.6s-0.2-0.3-0.3-0.4H4.7H4.6
		c0,0-0.1,0-0.1-0.1c0,0,0-0.1-0.1-0.1s-0.2,0-0.3-0.1c-0.1,0-0.2,0-0.2,0c-0.3,0-0.7,0.1-1,0.3c-0.3,0.2-0.6,0.4-0.8,0.6
		c-0.3,0.3-0.5,0.5-0.7,0.8S1,74.7,0.8,74.9V75c0,0,0,0.1,0,0.2v0.1l0,0c0-0.1-0.1-0.1-0.2-0.1l0,0c0,0.1,0.1,0.1,0.1,0.1s0,0,0,0.1
		v0.1v0.1H0.6c-0.1,0-0.1,0-0.1,0.1v0.1c0,0,0,0.1,0.1,0h0.1c0,0,0,0,0,0.1H0.6c0,0,0,0-0.1,0H0.4c0,0-0.1,0-0.2,0.1
		c0,0.1,0,0.1,0,0.2s0,0.3-0.1,0.4S0,76.9,0,77.1c0,0.1,0,0.2,0.1,0.3c0.1,0.1,0.1,0.2,0.3,0.3c0.1,0.1,0.2,0.1,0.3,0.2
		C0.8,77.9,0.9,78,1,78c0.2,0,0.3,0,0.5-0.1c0.1-0.1,0.2-0.1,0.3-0.2c0.1,0,0.1,0,0.2-0.1h0.1l0,0l0,0c0.2-0.1,0.4-0.3,0.5-0.4
		S2.9,77,3,76.9c0.1-0.1,0.2-0.2,0.3-0.3s0.2-0.2,0.3-0.3c0.1,0,0.2,0,0.3-0.1C4,76.1,4.1,76.1,4.1,76c0.2-0.2,0.4-0.4,0.6-0.5
		s0.4-0.3,0.6-0.5c0.1,0,0.3-0.1,0.3-0.2s0.2-0.2,0.3-0.3c-0.1,0.1-0.1,0.2-0.1,0.4c0,0.1-0.1,0.3-0.1,0.4c0,0.2-0.1,0.3-0.2,0.5
		s-0.1,0.3-0.1,0.5c0,0.1,0,0.3,0.1,0.3c0,0.1,0.1,0.1,0.1,0.3c0,0.1,0,0.2,0.1,0.3c0.1,0.1,0.2,0.2,0.3,0.3
		c0.1,0.1,0.3,0.2,0.4,0.3c0.1,0.1,0.3,0.1,0.4,0.1c0.2,0,0.3,0,0.4-0.2c0.1-0.1,0.2-0.2,0.3-0.3c0,0,0,0.1,0.1,0.1h0.2l0,0
		c0.1-0.1,0.2-0.1,0.3-0.1c0.1-0.1,0.2-0.2,0.3-0.3C8.5,77,8.7,77,8.8,76.9c0,0,0,0,0.1-0.1s0,0,0.1-0.1s0.2-0.1,0.4-0.2
		c0.1,0,0.3-0.1,0.4-0.2s0.2-0.2,0.3-0.3c0.1-0.1,0.2-0.2,0.2-0.3c0.1,0,0.2,0,0.2,0s0.1,0,0.1-0.1c0,0,0-0.1,0.1-0.1
		c0,0,0.1-0.1,0.2-0.1c0,0,0-0.1,0.1-0.2s0.1-0.2,0.1-0.2c0.1,0,0.3,0,0.4-0.1c0,0.1-0.1,0.3-0.1,0.5c-0.1,0.3-0.1,0.6-0.2,0.9
		c0,0.3-0.1,0.6-0.1,0.9s0,0.5,0,0.6c0,0.3,0.1,0.6,0.2,0.8c0.1,0.2,0.2,0.3,0.3,0.5c0,0,0,0,0.1,0h0.1c0,0,0,0,0.1,0.1
		c0,0,0,0.1,0.1,0.1c0.1,0.1,0.3,0.2,0.3,0.2s0.2,0.1,0.3,0.1c0,0,0.1,0,0.1,0.1l0.1,0.1c0,0,0.1,0,0.2,0s0.1,0,0.2,0
		c0.2,0,0.4,0,0.6-0.1c0.2,0,0.3-0.1,0.4-0.2c0.1,0,0.2-0.1,0.3-0.2s0.1-0.1,0.2-0.1l0,0c0,0,0,0,0.1,0l0,0c0,0,0.1-0.1,0.3-0.2
		c0.1-0.1,0.2-0.2,0.3-0.3c0.1,0,0.2-0.1,0.3-0.1c0.1,0,0.2-0.1,0.2-0.1s0-0.1,0.1-0.1c0,0,0-0.1,0.1-0.1c0,0,0.1,0,0.1-0.1h0.1
		c0.1-0.1,0.2-0.2,0.3-0.3c0.1-0.1,0.2-0.2,0.3-0.3c0.1-0.1,0.2-0.2,0.3-0.3c0.1-0.1,0.1-0.2,0.2-0.3c0.1,0,0.3-0.1,0.3-0.2
		s0.1-0.2,0.2-0.3H18h0.1c0,0,0.1-0.1,0.1-0.2s0.1-0.1,0.2-0.1s0.1,0.1,0.1,0.2s0,0.2,0,0.3c0,0.1,0,0.2,0,0.2c0,0.1,0,0.2,0,0.3
		c0,0.2,0,0.3,0.1,0.3c0,0,0.1,0.1,0.1,0.2v0.1v0.1V78c0,0,0,0.1,0.1,0.1c0,0,0,0,0,0.1v0.1c0.2,0.2,0.5,0.5,0.8,0.6
		c0.3,0.2,0.6,0.3,0.8,0.3c0.1,0,0.2,0,0.2-0.1c0-0.2,0-0.3-0.1-0.3c-0.1-0.1-0.2-0.1-0.3-0.1c-0.1,0-0.2,0-0.3,0
		c-0.1,0-0.2,0-0.3-0.1l-0.1-0.1v-0.1c0,0,0-0.1-0.1-0.1l-0.1-0.1c0,0,0-0.1,0-0.2v-0.1c0-0.1-0.1-0.2-0.1-0.2s0-0.1,0-0.2
		s0-0.2,0-0.4c0-0.1,0-0.3,0-0.4s0-0.3,0.1-0.4c0-0.1,0-0.2,0.1-0.3c0,0,0-0.1,0.1-0.1c0,0,0.1-0.1,0.1-0.2s0.1-0.2,0.1-0.3
		c0-0.1,0-0.2,0.1-0.3c0,0,0,0,0.1-0.1l0,0c0-0.1,0.1-0.1,0.1-0.2s0-0.2,0.1-0.2c0.1-0.1,0.2-0.3,0.3-0.4c0.1-0.1,0.2-0.3,0.3-0.4
		c0-0.1,0.1-0.2,0.2-0.3c0.1-0.1,0.2-0.2,0.2-0.3c0.1-0.1,0.1-0.2,0.2-0.3c0.1-0.1,0.1-0.1,0.2-0.2c0.1-0.2,0.2-0.4,0.4-0.6
		c0.1-0.2,0.3-0.4,0.3-0.5v-0.1c0-0.1,0-0.1,0.1-0.1h0.1c0-0.1,0-0.1,0-0.2s0-0.1,0.1-0.2l0.1-0.1c0,0,0-0.1,0.1-0.1
		c0.2-0.2,0.3-0.4,0.3-0.5s0-0.2,0-0.1v-0.1c0-0.1,0-0.1,0.1-0.1h0.1v-0.1v-0.1c0.1-0.1,0.1-0.3,0.2-0.3s0-0.2,0.1-0.3
		c0-0.1,0.1-0.1,0.2-0.2C23.2,68.5,23.2,68.5,23.2,68.4z M12.5,73.3c0-0.2,0.1-0.3,0.2-0.4c0-0.2,0.1-0.4,0.2-0.6s0.2-0.4,0.3-0.6
		c0-0.1,0.1-0.2,0.1-0.3s0-0.2,0.1-0.3c0,0,0,0,0.1-0.1h0.1c0-0.2,0.1-0.5,0.2-0.7s0.2-0.4,0.3-0.7c0.1-0.2,0.2-0.4,0.3-0.7
		c0.1-0.2,0.2-0.5,0.3-0.7c0,0,0.1-0.1,0.2-0.2s0.1-0.2,0.1-0.3l0,0l0,0c0,0,0-0.1,0.1-0.2s0.1-0.2,0.2-0.3c0.1-0.1,0.2-0.2,0.3-0.4
		c0.1-0.1,0.2-0.3,0.2-0.4c0.1-0.1,0.2-0.2,0.3-0.2c0.1,0,0.2-0.1,0.2-0.3c0.1,0,0.2,0,0.3-0.1s0.1-0.1,0.2-0.1c0,0,0.1,0,0.1,0.1
		S17,66,17,66.1c0,0.1,0,0.2,0,0.3c0,0.1,0,0.2,0,0.3c0,0.1,0,0.3-0.1,0.4c0,0.2-0.1,0.4-0.2,0.6s-0.2,0.4-0.2,0.6
		c-0.1,0.2-0.2,0.3-0.3,0.4c-0.1,0.3-0.1,0.5-0.3,0.7c-0.1,0.1-0.2,0.2-0.3,0.3v0.1v0.1c0,0-0.1,0.1-0.1,0.2
		c-0.1,0.1-0.1,0.2-0.1,0.3c0,0,0,0,0,0.1c-0.2,0.1-0.3,0.3-0.5,0.4c-0.1,0.2-0.3,0.4-0.3,0.6c-0.1,0-0.2,0-0.2,0.1
		c0,0-0.1,0.1-0.2,0.1c-0.1,0.2-0.3,0.4-0.4,0.6c-0.2,0.2-0.3,0.4-0.5,0.6c0,0-0.1,0.1-0.2,0.2s-0.2,0.2-0.3,0.3s-0.2,0.2-0.3,0.3
		c-0.1,0.1-0.1,0.1-0.2,0.1l0,0C12.5,73.6,12.5,73.5,12.5,73.3z M4.5,74.6c-0.1,0.2-0.2,0.3-0.3,0.4c-0.1,0.1-0.3,0.3-0.5,0.4
		c-0.2,0.2-0.5,0.4-0.8,0.6c0,0,0,0,0,0.1v0.1H2.8H2.7c-0.1,0-0.1,0.1-0.2,0.1l-0.1,0.1c-0.2,0.1-0.4,0.3-0.5,0.3
		c-0.2,0.1-0.3,0.2-0.5,0.4l0,0c-0.1,0-0.2,0-0.3,0.1c-0.1,0-0.2,0.1-0.4,0.1H0.6c-0.1,0-0.1,0-0.1-0.1v-0.1V77l0,0c0,0,0,0,0-0.1
		s0-0.2,0.1-0.2c0-0.1,0.1-0.2,0.2-0.3c0.1-0.1,0.1-0.2,0.2-0.3c0-0.1,0.1-0.3,0.1-0.4c0.1-0.1,0.3-0.2,0.3-0.3
		c0.1-0.1,0.2-0.2,0.3-0.4c0.1-0.1,0.2-0.3,0.2-0.4c0.1-0.1,0.2-0.2,0.3-0.3l0,0l0,0l0,0c0,0,0,0,0-0.1v-0.1
		c0.1-0.1,0.3-0.2,0.5-0.4s0.4-0.3,0.6-0.3l0,0l0,0l0,0c0,0,0,0,0.1,0s0.1,0,0.1-0.1l0,0c0,0,0,0,0.1,0s0.1,0,0.2,0s0.2,0,0.2,0
		c0.1,0,0.2,0,0.3,0.1c0.1,0.1,0.2,0.3,0.2,0.5C4.6,74.2,4.6,74.4,4.5,74.6z M21.7,70.2c-0.1,0.1-0.1,0.2-0.2,0.4c0,0-0.1,0-0.2,0.1
		c-0.1,0-0.1,0.1-0.1,0.1v-0.1c0-0.1,0.1-0.3,0.2-0.4s0.2-0.3,0.2-0.5l0,0c0.1,0,0.1,0,0.1-0.1l0,0v0.1C21.8,70,21.7,70.1,21.7,70.2
		z"/>
	<path class="st1" d="M25.6,73.2C25.6,73.2,25.7,73.2,25.6,73.2C25.7,73.2,25.6,73.2,25.6,73.2L25.6,73.2L25.6,73.2z"/>
	<path class="st1" d="M49,77.3c0-0.4,0.1-0.6,0.1-1.1l0.1-0.3c0.2-1.7,0.8-3,1.1-3.9c0.3-0.7,0.6-1.3,0.9-1.9
		c0.1-0.2,0.2-0.7,0.5-0.8c1.6,0.1,1.3,0.1,2.9,0.3c0.1,0,0.2,0,0.3,0c0.3,0,0.5,0,0.8,0c0.1,0,0.2,0.1,0.4,0.1
		c0.2,0,0.4-0.1,0.7-0.1c0.2,0,0.4,0.1,0.6,0.1c0.1,0,0.4,0,0.4-0.2c0-0.1-0.1,0-0.4-0.1c-0.3,0-0.5,0.1-0.8,0.1
		c-0.8,0-1.4-0.3-2-0.3c-0.1,0-0.2,0-0.2,0c-0.2-0.1-0.3-0.1-0.3-0.1l0,0c0,0-0.1,0-0.3-0.1c-0.5-0.2-1.1,0-1.7-0.3
		c0.1-0.7,0.7-1.1,0.9-1.7c-0.2-0.2-0.2-0.4-0.6-0.4c-0.3,0.3-0.5,0.6-0.7,1c-0.3,0.4-0.6,0.9-0.9,1c-1.1-0.1-1.6-0.2-2.3-0.2
		c-0.3,0-0.7,0.1-1.1,0.1c-0.1,0-0.2,0-0.3,0c-0.3,0-0.4,0.2-0.8,0.2c-0.1,0-0.1,0-0.2,0c-0.3,0-0.4,0.1-0.7,0.2
		c-1,0.2-1.8,0.3-2.5,0.7c-0.6,0-1.1,0.4-1.5,0.5c-0.1,0.1-0.3,0-0.4,0.1c-0.1,0-0.1,0.2-0.2,0.2c0,0-0.1,0-0.2,0.1
		c-0.2,0.1-0.4,0.5-0.4,0.7c0,0.1,0,0.3,0,0.5c0.3,0.1,0.5,0.2,0.8,0.2c0.1,0,0.4,0,0.4-0.1c0-0.4-0.5-0.2-0.5-0.6s0.4-0.4,0.5-0.4
		c0.2-0.1,0.3-0.3,0.5-0.4c0.3-0.1,0.6-0.2,0.6-0.2h0.1c0.1,0,0.1-0.1,0.1-0.2c0.7-0.3,1.4-0.5,1.8-0.6c1.2-0.4,2.4-0.5,3.6-0.5
		c0.8,0,1.6,0.1,2.5,0.2l0,0l0,0c0,0.1-0.2,0.4-0.2,0.6c0,0.3-0.3,0.8-0.4,1.1c-0.1,0.2-0.2,0.5-0.3,0.7c0,0.2-0.1,0.2-0.2,0.4
		c-0.1,0.2-0.3,1-0.3,1.2c0,0.1-0.1,0.1-0.1,0.3v0.1c0,0.2-0.2,0.3-0.2,0.5s0,0.4-0.1,0.6s-0.1,0.4-0.2,0.6c0,0,0,0.1-0.1,0.1
		c-0.2,0.2-0.4,0.2-0.6,0.4c-0.5,0.4-1.1,0.8-1.6,1c0,0.3-0.3,0.3-0.4,0.3l0,0c0,0.2-0.7,0.5-1.1,0.5s-0.7-0.1-0.7-0.6
		c0-1.2,0.5-1.9,0.7-2.8c-0.2-0.1-0.2-0.3-0.5-0.3c-0.1,0-0.2,0.1-0.3,0.1c-0.1,0-0.1,0-0.1-0.1c-0.2,0.2-0.3,0.5-0.7,0.5
		c0-0.5-0.3-0.8-0.5-1c-0.1-0.1-0.2,0-0.3-0.1c-0.1,0-0.1-0.2-0.2-0.2c-0.2-0.1-0.4-0.1-0.5-0.1c-1.3,0-2.3,1.5-3,2.2c0,0,0,0-0.1,0
		c-0.2,0.1-0.3,0.3-0.4,0.3c-0.1,0.1-0.2,0.2-0.3,0.3c0,0-0.1,0.1-0.1,0.2s0,0.1-0.1,0.2c-0.1,0-0.2,0.1-0.3,0.1
		c-0.1,0-0.2,0.1-0.3,0.1c-0.2,0.1-0.3,0.2-0.4,0.3c-0.1,0.1-0.2,0.2-0.3,0.2c-0.1,0.1-0.2,0.1-0.3,0.2c-0.1,0.1-0.3,0.1-0.4,0.2
		s-0.3,0.1-0.4,0.2s-0.3,0.2-0.4,0.2c-0.1,0.1-0.3,0.2-0.4,0.2s-0.3,0.1-0.4,0.1c-0.2,0-0.3,0-0.5-0.1s-0.3-0.3-0.3-0.5
		c0-0.1,0-0.1,0-0.2s0-0.1,0-0.2s0-0.2-0.1-0.3c0.1-0.1,0.1-0.2,0.2-0.4c0-0.2,0.1-0.3,0.1-0.5s0.1-0.4,0.2-0.5
		c0-0.2,0.1-0.3,0.1-0.5c0.1-0.1,0.1-0.1,0.1-0.2c0,0,0-0.1,0-0.2s0-0.1,0-0.2s0-0.2,0-0.3c0-0.2-0.1-0.4-0.2-0.5s-0.3-0.2-0.5-0.2
		c-0.1,0-0.3,0-0.4,0.1s-0.3,0.1-0.4,0.2s-0.3,0.2-0.4,0.3c-0.1,0.1-0.2,0.2-0.3,0.3c-0.1,0.1-0.2,0.1-0.2,0.1h-0.1
		c0,0-0.1,0.1-0.2,0.1c-0.1,0.1-0.3,0.2-0.5,0.4c0,0-0.1,0-0.1,0.1c0,0-0.1,0-0.1,0.1c-0.1,0.1-0.2,0.2-0.4,0.3
		c-0.1,0.1-0.3,0.2-0.4,0.3c0,0,0,0,0-0.1l0,0c0.1-0.3,0.2-0.6,0.3-0.9c0.1-0.3,0.2-0.6,0.2-0.9l0,0c0,0,0-0.1,0-0.2s0-0.1,0-0.2
		s0-0.1,0-0.2s0-0.2,0-0.2c-0.1-0.1-0.2-0.2-0.2-0.2c-0.1-0.1-0.1-0.1-0.2-0.2c0,0-0.1-0.1-0.2-0.2c-0.1,0-0.2-0.1-0.3-0.1
		c0,0,0,0-0.1,0c0,0,0,0-0.1,0c-0.2,0-0.3-0.1-0.5-0.1s-0.4,0-0.6,0.1c-0.2,0-0.4,0.1-0.7,0.2c-0.1,0-0.2,0-0.3,0
		c-0.1,0-0.2,0-0.2,0.1l0,0l0,0c-0.1,0-0.2,0-0.3,0c-0.1,0-0.2,0.1-0.3,0.1c-0.1,0-0.2,0.1-0.2,0.1h-0.1c0,0-0.1,0-0.2,0
		s-0.2,0-0.3,0.1c-0.1,0-0.3,0.1-0.4,0.1c-0.2,0-0.3,0.1-0.5,0.1s-0.4,0-0.5,0c-0.2,0-0.4,0-0.5-0.1s-0.2-0.1-0.3-0.1
		c0,0-0.1,0-0.1,0.1v0.1c0,0.1,0,0.1,0.1,0.2c0,0.1,0.1,0.1,0.2,0.2c0.1,0,0.1,0.1,0.2,0.1s0.1,0,0.1,0.1c0.1,0,0.2,0,0.3,0
		c0.1,0,0.2,0,0.3,0c0,0,0.1,0,0.3-0.1c0.1,0,0.3-0.1,0.5-0.1s0.3-0.1,0.4-0.1s0.2,0,0.2,0h0.1c0.1,0,0.2,0,0.5-0.1
		c0.1,0,0.2-0.1,0.4-0.1c0.2,0,0.3-0.1,0.6-0.2c0.2-0.1,0.5-0.1,0.8-0.2c0.3,0,0.6-0.1,0.9-0.1l0,0c0,0,0,0,0.1,0c0,0,0,0,0.1,0l0,0
		c0.1,0,0.2,0,0.3,0c0.1,0,0.2,0.1,0.3,0.1c0,0.1,0.1,0.2,0.1,0.3c0,0.1,0,0.2,0,0.3h-0.1l-0.6,2.3c0,0,0,0,0,0.1l0,0l-0.3,0.9
		c0,0.1,0.1,0.1,0.1,0.2c0,0,0.1,0.1,0.2,0.2c0.1,0,0.2-0.1,0.4-0.2c0.1-0.1,0.3-0.3,0.5-0.4c0.1-0.1,0.3-0.3,0.4-0.4
		s0.2-0.2,0.2-0.2s0,0,0.1-0.1c0,0,0,0,0.1,0c0.4-0.3,0.7-0.6,1.1-0.9s0.7-0.5,0.9-0.7c0.1,0,0.2-0.1,0.3-0.2
		c0.1-0.1,0.2-0.1,0.3-0.1c0,0.1,0,0.2,0,0.2s0,0.1,0,0.2l0,0l0,0l0,0c0,0.1-0.1,0.3-0.1,0.4s-0.1,0.3-0.1,0.3s0,0,0,0.1
		c0,0,0,0,0,0.1V75l0,0l0,0c0,0,0,0,0,0.1s0,0.1,0,0.1v0.1c0,0.1,0,0.1-0.1,0.2s-0.1,0.1-0.1,0.2v0.1v0.1c0,0.1,0,0.2-0.1,0.3
		c-0.1,0.1-0.1,0.2-0.1,0.3c0,0.1,0,0.2,0,0.3c0,0.1,0,0.2,0,0.3c0,0.1,0,0.2,0,0.3c0,0.1,0,0.1,0,0.2l0.2,0.3c0,0,0.1,0,0.2,0.1
		s0.2,0.1,0.3,0.1c0,0,0.1,0,0.2,0c0,0,0.1,0,0.2,0s0.2,0,0.3,0c0.1,0,0.1,0,0.1,0h0.1c0,0,0.1-0.1,0.3-0.1c0.1,0,0.1-0.1,0.2-0.1
		c0-0.1,0.1-0.1,0.2-0.1h0.1h0.1c0.1,0,0.1,0,0.1,0v-0.1h0.1h0.1c0,0,0.1,0,0.1-0.1l0.1-0.1c0.2-0.1,0.3-0.1,0.4-0.2
		c0.1,0,0.1-0.1,0.1-0.1v-0.1c0,0,0,0,0.1,0h0.2c0,0,0,0,0.1,0c0,0,0.1,0,0.1-0.1l0.1-0.1h0.1c0.1,0,0.1-0.1,0.1-0.1s0.1,0,0.1-0.1
		c0,0,0,0,0.1-0.1l0.1-0.1c0.2-0.2,0.4-0.3,0.5-0.4s0.2-0.2,0.3-0.3c0,0,0,0,0,0.1s0.2,0,0.2,0.1c0,0,0,0,0,0.1c-0.1,0-0.1,0-0.2,0
		s-0.2,0-0.3,0.1c0,0,0,0.1,0,0.2c0,0.3-0.2,0.5-0.2,1s0.6,0.8,1,0.8s0.5-0.2,0.8-0.3c0.1-0.1,0.2-0.1,0.3-0.1c0,0,0-0.1,0.1-0.1
		c0.8-0.5,1.2-0.7,1.5-1.2c0.2,0,0.4-0.2,0.5-0.3c0.4-0.4,0.8-0.7,1.2-1.1c0.3-0.1,0.4-0.4,0.7-0.5c-0.1,0.2-0.2,0.5-0.2,0.8
		c-0.1,0.3-0.3,0.7-0.3,1.1c0,0.3,0.2,0.3,0.2,0.6c0,0.3,0.7,1,1.3,1c0.3,0,0.5-0.3,0.7-0.4c0,0.1,0,0.1,0.1,0.1c0,0,0.1,0,0.2,0
		l0,0c0.1-0.1,0.1-0.1,0.3-0.1c0.2-0.3,0.5-0.4,0.7-0.5l0.1-0.1c0.2-0.2,0.5-0.2,0.7-0.3c0.2-0.2,0.5-0.3,0.5-0.6
		c0.2,0,0.3,0,0.3-0.1c-0.1,0.5-0.1,1.1-0.1,1.6c0,0.6,0.1,1,0.2,1.3c0.1,0.2,0.3,0.3,0.3,0.5l0,0l0.1-0.1c0.1,0,0.1,0,0.2,0
		s0.2-0.1,0.2-0.2s-0.1-0.3-0.2-0.4v-0.1c0-0.2-0.1-0.3-0.1-0.4v-0.1c0,0,0-0.1,0-0.2c0,0,0-0.1,0-0.2C49,77.4,49,77.4,49,77.3z
		 M38.5,75.7l0.1-0.1C38.6,75.7,38.6,75.7,38.5,75.7L38.5,75.7z M41,76c0,0,0,0.1-0.1,0.1s-0.2,0-0.3,0.1c-0.1,0.1-0.2,0.2-0.3,0.3
		c-0.4,0.3-0.7,0.4-1,0.8l0,0c-0.3,0-0.4,0.2-0.7,0.2c-0.1,0-0.2,0-0.2-0.1s0-0.2,0-0.2l0,0l0,0c0,0,0,0,0-0.1
		c0-0.3,0.5-0.6,0.5-1.3c0.4-0.2,0.5-0.6,0.7-0.9l0,0c0.1,0,0.2-0.1,0.3-0.1s0.1-0.1,0.2-0.1c0,0,0-0.1,0.1-0.1c0,0,0,0,0-0.1l0,0
		c0,0,0,0,0-0.1c0.1-0.1,0.1-0.1,0.2-0.2v-0.1c0.2-0.2,0.5-0.5,0.9-0.5l0,0v-0.1c0,0,0.2,0,0.2-0.1l0,0h0.1c0.1,0,0.3,0,0.5,0
		s0.5,0.2,0.5,0.6C42.6,75,42.2,75,41,76z"/>
	<path class="st1" d="M84.9,65.3c-0.2-0.2-0.5-0.2-0.9-0.2c-0.1,0.1-0.2,0.2-0.4,0.3c-0.1,0.1-0.1,0.3-0.2,0.4S83.1,65.9,83,66
		c0,0.3-0.3,0.3-0.3,0.7l0,0c-0.2,0-0.2,0.2-0.2,0.3c0,0-0.1,0-0.1,0.1c-0.1,0.2-0.1,0.3-0.1,0.4l-0.1,0.1c-0.3,0.5-0.5,1.3-0.6,1.5
		c-0.1,0.1-0.1,0.2-0.2,0.3c-0.1,0.2-0.1,0.6-0.4,0.7v0.1c0,0.4-0.3,0.7-0.4,1s-0.1,0.7-0.4,1v0.1c0,0.1,0,0.2,0.1,0.3
		c-0.2,0.1-0.2,0.2-0.2,0.2s0,0,0,0.1c0,0.6-0.4,0.5-0.4,0.6s0.1,0.2,0.1,0.3c0,0.2-0.3,0.3-0.4,0.4c-0.2,0.3-0.4,0.5-0.5,0.6
		c0,0,0,0-0.1,0s-0.2,0.2-0.3,0.3c-0.2,0.2-0.4,0.2-0.6,0.4c-0.5,0.4-1.1,0.8-1.6,1c0,0.3-0.3,0.3-0.4,0.3l0,0
		c0,0.2-0.7,0.5-1.1,0.5s-0.7-0.1-0.7-0.6c0-1.2,0.5-1.9,0.7-2.8c-0.2-0.1-0.2-0.3-0.5-0.3c-0.1,0-0.2,0.1-0.3,0.1
		c-0.1,0-0.1,0-0.1-0.1c-0.2,0.2-0.3,0.5-0.7,0.5c0-0.5-0.3-0.8-0.5-1c-0.1-0.1-0.2,0-0.3-0.1c-0.1,0-0.1-0.2-0.2-0.2
		c-0.2-0.1-0.4-0.1-0.5-0.1c-1.1,0-2,1-2.6,1.8c-0.7,0.6-0.8,0.6-1.5,1.2c-0.3,0.2-0.4,0.3-0.7,0.5l-0.6,0.5
		c-0.4,0.2-0.7,0.5-1.3,0.8c-0.1,0-0.3,0.1-0.4,0.2C64.2,77.9,64,78,63.9,78c-0.2,0-0.2-0.1-0.3-0.2c0.1-0.3,0-0.1,0.1-0.3
		c0,0,0.4-0.4,0.3-0.4v-0.2c0.1-0.2,0.2-0.2,0.2-0.3c0.1-0.2,0.1-0.3,0.1-0.3c0.2-0.3,0.4-0.6,0.4-1.1c0,0,0-0.1-0.1-0.1
		c0.1,0,0.1-0.1,0.1-0.2c0-0.3-0.2-0.4-0.3-0.7l-0.3-0.3c-0.3-0.1-0.4-0.3-0.4-0.4l0,0c-0.2,0-0.5-0.3-0.5-0.3s0-0.1,0-0.2
		c0,0,0,0,0-0.1c0.2-0.3,0.3-0.5,0.4-0.8l0,0v-0.2c-0.1-0.2-0.3-0.3-0.4-0.3c0,0,0-0.1-0.2-0.1c-0.6,0-0.8,0.6-0.9,0.6
		c0,0.1,0,0.1,0,0.2c0,0.3,0.2,0.6,0.3,0.8c-0.2,0.3-0.6,0.6-0.7,0.8l0,0c0,0,0,0-0.1,0.1s-0.1,0-0.3,0.2l0,0l0,0l0,0
		c-0.1,0.1-0.4,0.2-0.4,0.3l0.1,0.1h-0.1l0,0c-0.2,0.3-0.3,0.2-0.5,0.5c0,0,0,0-0.1,0c-0.2,0-0.9,0.5-1.1,0.7
		c-0.3,0-0.5,0.2-0.6,0.5h-0.1c-0.2,0-0.3,0.3-0.4,0.4c-0.2,0.1-0.5,0.3-0.6,0.5c0,0,0,0-0.1,0c-0.4,0-0.8,0.5-1,0.5
		c-0.1,0-0.2,0-0.3,0H56c-0.2-0.2-0.2-0.5-0.2-0.8c0-0.7,0.3-1.2,0.4-1.6c0.3-0.9,0.4-1.1,0.4-1.6c-0.1-0.1-0.2-0.2-0.5-0.2
		c-1.4,1.5-2,1.7-2.9,2.7h-0.1c-0.1,0-0.1,0.1-0.2,0.1l0,0c0,0.1-0.2,0.1-0.2,0.3l0,0c-0.5,0-0.7,0.6-1.2,0.6c-0.1,0-0.2,0-0.3-0.1
		c0.1-1.1,0.5-1.8,0.8-2.6c0-0.2,0.4-0.1,0.4-0.3c0-0.3-0.1-0.5-0.5-0.5c-0.3,0-0.6,0.9-0.7,1.3c-0.2,0.5-0.5,1.1-0.5,1.6
		c0,0.1,0,0.3,0,0.5c0,0.1,0,0.2,0,0.2c0.2,0.4,0.4,0.7,0.8,0.7c0.2,0,0.6-0.1,0.8-0.3c0.1,0,0.1-0.1,0.1-0.2
		c0.3-0.1,0.4-0.3,0.6-0.5c0.9-0.7,2.1-1.8,2.2-1.8l0,0c0,0.6-0.2,1.2-0.2,1.7s0.3,1.1,0.4,1.1c0.1,0.1,0.4,0.3,0.6,0.3
		c0.4,0,0.8-0.3,1.1-0.4c0.4-0.2,0.8-0.6,1.1-0.8c0.1-0.1,0.2-0.1,0.3-0.1c0,0,0-0.1,0.1-0.1c0.3-0.2,0.6-0.4,0.9-0.7
		c0.1-0.1,0.2-0.1,0.3-0.1c0.2-0.2,0.3-0.3,0.7-0.5c0.1,0,0-0.1,0.1-0.1l0,0l0.3-0.3l0.3-0.2l0.2-0.3v-0.1l0,0h0.1
		c0.1-0.1,0.2-0.1,0.3-0.2h0.1c0.2-0.1,0.2-0.2,0.2-0.2l0,0c0,0,0,0-0.1,0c0,0,0.1,0,0.4-0.3c0,0,0.1,0,0.1-0.1
		c0.3,0.1,0,0.1,0.5,0.3c0.3,0.2,0.8,0.5,0.8,0.9c0,0.2-0.1,0.3-0.1,0.5v0.1c-0.1,0.1-0.3,0.4-0.3,0.5v0.1c0,0.1-0.1,0-0.1,0.1
		c-0.2,0.4-0.4,0.9-0.7,1.3l-0.1,0.2v0.1c0,0,0.1,0,0.1,0.1c0,0,0,0,0,0.1c0.2,0.4,0.2,0.7,0.9,0.7c0.9,0,1.3-0.6,1.9-0.9
		c0.1,0,0.2-0.1,0.2-0.1l1-0.7c0.2-0.2,0.2-0.2,0.3-0.2l0.3-0.2c0.1-0.1,0.2-0.2,0.3-0.3c0.3-0.1,0.4-0.3,0.5-0.4v0.1
		c0,0,0,0.1-0.1,0.1h-0.1c-0.1,0-0.1,0-0.1,0.1c0,0,0,0,0,0.1s0.2,0,0.2,0.1c0,0,0,0,0,0.1c-0.1,0-0.1,0-0.2,0s-0.2,0-0.3,0.1
		c0,0,0,0.1,0,0.2c0,0.3-0.2,0.5-0.2,1s0.6,0.8,1,0.8s0.5-0.2,0.8-0.3c0.1-0.1,0.2-0.1,0.3-0.1c0,0,0-0.1,0.1-0.1
		c0.8-0.5,1.2-0.7,1.5-1.2c0.2,0,0.4-0.2,0.5-0.3c0.4-0.4,0.8-0.7,1.2-1.1c0.3-0.1,0.4-0.4,0.7-0.5c-0.1,0.2-0.2,0.5-0.2,0.8
		c-0.1,0.3-0.3,0.7-0.3,1.1c0,0.3,0.2,0.3,0.2,0.6c0,0.3,0.7,1,1.3,1c0.3,0,0.5-0.3,0.7-0.4c0,0.1,0,0.1,0.1,0.1c0,0,0.1,0,0.2,0
		l0,0c0.1-0.1,0.1-0.1,0.3-0.1c0.2-0.3,0.5-0.4,0.7-0.5l0.1-0.1c0.2-0.2,0.5-0.2,0.7-0.3c0.2-0.2,0.5-0.3,0.5-0.6
		c0.5,0,0.2-0.2,0.5-0.3v-0.1c0,0,0.1,0,0.1-0.1c0.3-0.1,0.3-0.2,0.5-0.4c0.1,0,0.1-0.1,0.2-0.1c0,0.4-0.4,1.9-0.4,2.3
		c0,0.7,0,1.5,0.3,1.9c0.1,0.1,0.1,0.2,0.2,0.3c0.1,0.2,0.3,0.4,0.4,0.5c0,0,0,0.2,0.1,0.2c0,0,0.1,0,0.2,0.1c0.1,0,0.1,0.2,0.2,0.2
		H80l0,0v0.1l0,0c0,0,0,0,0.1,0c0,0,0,0.1,0.1,0.1h0.1c0.1,0,0.1,0.1,0.1,0.1c0.1,0.1,0.4,0.1,0.6,0.1c0.3,0.1,0.5,0.2,0.5,0.2
		c0.1,0,0.1-0.1,0.2-0.1c0.2,0,0.3,0,0.3,0c0.1,0,0.7-0.1,0.8-0.5c0,0,0,0-0.1,0c-0.2,0-0.3,0.1-0.4,0.1c0,0,0,0,0-0.1l0,0
		c0,0,0-0.1-0.1-0.1c-0.4,0-0.7,0.1-1,0.1c-0.6,0-1.2-0.7-1.3-0.9c-0.3-0.5-0.5-1.4-0.5-2.3c0-1,0.3-2.2,0.7-2.8h0.1
		c0-0.1,0-0.2,0.1-0.3c0.2-0.2,0.4-0.3,0.6-0.5c0-0.1,0-0.2,0-0.2c0.1-0.1,0.3,0,0.3-0.2c0-0.3,0.2-0.2,0.3-0.3
		c0.1-0.1,0-0.4,0.3-0.4c0-0.1,0-0.1,0.1-0.2c0.3-0.3,0.4-0.5,0.6-0.8c0.7-1.2,1.3-2,1.7-3.2c0.1-0.1,0.2-0.3,0.3-0.4
		c0-0.2,0.1-0.4,0.1-0.5c0.1-0.3,0.2-0.4,0.3-0.7c0.1-0.4,0.1-0.7,0.1-1.1C85,65.5,85,65.4,84.9,65.3z M62.9,72.8
		c-0.2,0-0.2-0.2-0.2-0.3c0-0.2,0.1-0.4,0.2-0.4h0.4c0,0.1,0,0.1,0,0.2C63.2,72.5,63,72.6,62.9,72.8z M68.4,75.4
		C68.5,75.4,68.5,75.4,68.4,75.4C68.5,75.4,68.5,75.5,68.4,75.4c0.1,0.1,0.1,0.1,0,0.1C68.5,75.5,68.4,75.5,68.4,75.4
		C68.4,75.5,68.4,75.4,68.4,75.4z M70.8,76.1c0,0,0,0.1-0.1,0.1s-0.2,0-0.3,0.1c-0.1,0.1-0.2,0.2-0.3,0.3c-0.4,0.3-0.7,0.4-1,0.8
		l0,0c-0.3,0-0.4,0.2-0.7,0.2c-0.1,0-0.2,0-0.2-0.1s0-0.2,0-0.2l0,0l0,0c0,0,0,0,0-0.1c0-0.3,0.5-0.6,0.5-1.3
		c0.5-0.3,0.6-1.1,1.2-1.3l0,0c0,0,0,0,0.1,0c0,0,0-0.1,0.1-0.2c0.3-0.2,0.6-0.6,1.1-0.7l0,0v-0.1c0,0,0.2,0,0.2-0.1l0,0h0.1
		c0.1,0,0.3,0,0.5,0s0.5,0.2,0.5,0.6C72.4,75.1,71.9,75,70.8,76.1z M84,67.8C84,67.8,84,67.9,84,67.8c0,0.2-0.1,0.3-0.1,0.4l0,0
		c-0.4,0.4-0.4,1-0.8,1.4c-0.1,0.1-0.3,0.5-0.4,0.8c-0.3,0.2-0.5,0.5-0.6,0.9c-0.3,0.1-0.3,0.5-0.7,0.7c-0.1,0.3-0.2,0.4-0.4,0.6
		c0,0,0,0,0,0.1s-0.2,0-0.3,0.1c-0.1,0.1,0,0.3-0.2,0.3c0,0-0.1,0.2-0.2,0.2l0,0c0.3-1.1,0.7-2.4,1.3-3.6c0.2-0.5,0.6-1.2,0.9-2
		c0,0,0.2-0.4,0.2-0.3c0,0,0,0,0-0.1s0.1,0,0.1-0.1c0.1-0.3,0.3-0.6,0.5-0.9s0.5-0.5,1-0.6c0,0.1,0.1,0.1,0.1,0.2
		C84.6,66.5,84.2,67.6,84,67.8z"/>
</g>
<g>
	<path class="st1" d="M35.1,1.2c1-0.5,2-0.9,3.1-1.2l0,0c-1.2,0.1-2.3,0.3-3.4,0.6L35.1,1.2z"/>
	<path class="st1" d="M30.7,4.7c0.7-0.9,1.6-1.6,2.5-2.3l-0.9-1.2c-1.3,0.4-2.5,0.9-3.6,1.4L30.7,4.7z"/>
	<path class="st1" d="M27.9,9.5c0.4-1.1,0.9-2.1,1.4-3l-3.5-2.4c-1.3,0.8-2.6,1.8-3.8,2.8L27.9,9.5z"/>
	<path class="st1" d="M46.2,0c1.1,0.3,2.1,0.7,3.1,1.2l0.3-0.6C48.5,0.3,47.4,0.1,46.2,0L46.2,0z"/>
	<path class="st1" d="M51.2,2.4c0.9,0.7,1.7,1.4,2.5,2.3l2.1-2c-1.2-0.6-2.4-1.1-3.7-1.5L51.2,2.4z"/>
	<path class="st1" d="M55,6.6c0.6,0.9,1.1,2,1.4,3L62.2,7c-1.2-1-2.4-1.9-3.7-2.8L55,6.6z"/>
	<path class="st1" d="M67.8,13.7c-0.8-1.4-1.8-2.8-2.9-4l-7.9,2c0.1,0.6,0.2,1.1,0.2,1.7C61,13,64.6,13.2,67.8,13.7z"/>
	<path class="st1" d="M27.1,13.3c0-0.5,0.1-1.1,0.2-1.6l-8-2c-1.1,1.3-2.1,2.6-2.9,4C19.6,13.3,23.3,13.1,27.1,13.3z"/>
	
		<radialGradient id="SVGID_1_" cx="43.8829" cy="65.0231" r="14.4735" fx="43.7154" fy="65.0233" gradientTransform="matrix(1 0 0 -1 0 83.0101)" gradientUnits="userSpaceOnUse">
		<stop  offset="0" style="stop-color:#FFDBA2"/>
		<stop  offset="1" style="stop-color:#F7A800"/>
	</radialGradient>
	<path class="st2" d="M55.1,13.7C54.7,6.9,49,1.5,42.1,1.5c-6.8,0-12.4,5.3-12.9,11.9c5.1,0.5,10.4,1.9,14.8,4.8
		C47.6,15.8,51.4,14.4,55.1,13.7z"/>
	
		<radialGradient id="SVGID_2_" cx="44.0064" cy="64.7551" r="15.2349" gradientTransform="matrix(1 0 0 -1 0 83.0101)" gradientUnits="userSpaceOnUse">
		<stop  offset="0" style="stop-color:#98C481"/>
		<stop  offset="1" style="stop-color:#4E9D2D"/>
	</radialGradient>
	<path class="st3" d="M46.4,20.1c2.1,1.8,3.9,4.1,5.3,7c8.4-1.5,15.5-4.9,20.2-9.4C65.8,16,55.3,14.4,46.4,20.1z"/>
	
		<radialGradient id="SVGID_3_" cx="44.0064" cy="64.7551" r="15.2349" gradientTransform="matrix(1 0 0 -1 0 83.0101)" gradientUnits="userSpaceOnUse">
		<stop  offset="0" style="stop-color:#98C481"/>
		<stop  offset="1" style="stop-color:#4E9D2D"/>
	</radialGradient>
	<path class="st4" d="M48.7,27.6c-8.3-14.8-29.8-11.8-38-10.1C17.2,23.8,28.5,28,41.4,28C43.9,28,46.4,27.9,48.7,27.6z"/>
</g>
</svg>
